<?xml version="1.0" encoding="UTF-8" standalone="no"?>
<!-- Created with Inkscape (http://www.inkscape.org/) -->

<svg
   width="270.93332mm"
   height="270.93332mm"
   viewBox="0 0 270.93332 270.93332"
   version="1.1"
   id="svg1"
   xml:space="preserve"
   inkscape:version="1.3.2 (091e20e, 2023-11-25, custom)"
   sodipodi:docname="octopuslogo.svg"
   xmlns:inkscape="http://www.inkscape.org/namespaces/inkscape"
   xmlns:sodipodi="http://sodipodi.sourceforge.net/DTD/sodipodi-0.dtd"
   xmlns="http://www.w3.org/2000/svg"
   xmlns:svg="http://www.w3.org/2000/svg"><sodipodi:namedview
     id="namedview1"
     pagecolor="#ffffff"
     bordercolor="#000000"
     borderopacity="0.25"
     inkscape:showpageshadow="2"
     inkscape:pageopacity="0.0"
     inkscape:pagecheckerboard="0"
     inkscape:deskcolor="#d1d1d1"
     inkscape:document-units="mm"
     inkscape:zoom="0.52724989"
     inkscape:cx="569.93848"
     inkscape:cy="541.48897"
     inkscape:window-width="1920"
     inkscape:window-height="1051"
     inkscape:window-x="-9"
     inkscape:window-y="-9"
     inkscape:window-maximized="1"
     inkscape:current-layer="layer1" /><defs
     id="defs1" /><g
     inkscape:label="Layer 1"
     inkscape:groupmode="layer"
     id="layer1"
     transform="translate(36.11182,-21.549469)"><path
       style="fill:#9d174d;stroke-width:1.96704"
       d="m 42.619001,290.1439 c -2.032804,-0.43219 -5.834413,-1.79622 -8.44802,-3.03117 C 20.068764,280.44933 10.704518,266.24877 9.7740536,250.11557 8.6277698,230.24033 19.366772,212.7807 40.242997,200.5787 c 2.178005,-1.27303 6.692414,-3.77361 10.032023,-5.55685 16.30291,-8.70523 23.68481,-15.34844 29.254235,-26.32688 3.096906,-6.10463 4.888257,-12.99271 5.589944,-21.49444 1.421748,-17.22604 2.070099,-20.8358 4.673654,-26.02104 l 1.402261,-2.79274 0.32628,5.35773 c 0.401521,6.5932 2.359785,14.61209 5.433562,22.24989 5.333514,13.25283 11.513474,22.46526 30.130444,44.91524 1.7588,2.12093 3.73705,4.59563 4.3961,5.49934 l 1.19825,1.64311 -4.90228,-2.24482 c -7.15141,-3.27474 -10.03782,-3.90129 -19.46013,-4.22416 -8.997493,-0.30832 -13.440026,0.26906 -21.082236,2.73996 -8.196556,2.65015 -22.082293,9.82893 -34.584079,17.8796 -15.193328,9.78393 -21.33238,16.78403 -24.51475,27.95312 -2.752658,9.66095 -0.0032,20.69178 6.985751,28.02608 3.774168,3.9607 7.645529,5.93899 14.303313,7.30901 5.798881,1.19328 7.281505,1.92374 8.792933,4.33213 2.082994,3.31912 0.725171,7.59012 -3.10376,9.7628 -2.331664,1.32305 -7.757769,1.56543 -12.495511,0.55812 z m 96.351979,-4.75925 c -2.24095,-1.15856 -4.19533,-4.30537 -4.20709,-6.77398 -0.006,-1.19932 0.64242,-2.8713 1.88915,-4.87347 5.14291,-8.25921 6.55318,-12.60466 6.54238,-20.15899 -0.004,-3.07789 -0.35993,-6.91231 -0.81478,-8.78739 -2.80467,-11.56171 -13.11092,-22.21196 -25.63336,-26.48885 -5.17213,-1.7665 -13.35484,-2.20928 -18.622498,-1.00772 -7.597831,1.73308 -15.500989,6.91442 -19.339062,12.67875 -2.404762,3.61166 -3.961965,9.58035 -3.538791,13.56399 0.860172,8.09743 7.112553,14.36305 14.942012,14.97367 4.470179,0.34863 7.590677,-0.56501 10.537579,-3.08526 5.74071,-4.90959 6.44599,-11.3147 1.80941,-16.43245 -3.794922,-4.18873 -4.29511,-6.76867 -2.02465,-10.44294 1.982,-3.20746 7.10298,-4.19751 11.35848,-2.196 2.78242,1.30867 6.51073,5.95188 8.10703,10.09642 4.26253,11.06713 1.75211,21.84707 -7.13363,30.63218 -5.44936,5.38766 -12.00241,7.73354 -21.384045,7.65509 -4.620793,-0.0386 -6.289272,-0.29048 -10.019343,-1.51237 -8.451661,-2.76855 -15.469457,-8.66959 -19.753912,-16.61044 -2.574035,-4.77074 -3.604512,-9.09692 -3.614434,-15.17425 -0.02624,-16.07389 10.927117,-30.86157 27.670971,-37.35744 7.25962,-2.8164 9.471331,-3.16345 19.972753,-3.13403 9.12566,0.0256 10.08053,0.1206 14.52003,1.44495 12.04162,3.59222 23.62775,11.77686 30.46841,21.52347 7.58274,10.8039 10.78168,22.37729 9.49644,34.35689 -0.76607,7.14026 -2.3736,12.11775 -5.94801,18.41706 -2.85592,5.03308 -5.10234,7.71923 -7.45856,8.91855 -1.98548,1.0106 -5.63508,0.90544 -7.82248,-0.22544 z m 48.06076,-45.53624 c -11.04771,-2.34532 -21.90293,-11.02063 -31.41388,-25.1055 -9.00109,-13.32983 -16.8901,-24.66898 -19.49,-28.01371 -1.60847,-2.06926 -6.60454,-8.49469 -11.10237,-14.27874 -4.49784,-5.78405 -9.64446,-12.90198 -11.43692,-15.81765 -3.54717,-5.76988 -8.18956,-15.82927 -9.74599,-21.11814 -1.20769,-4.10387 -1.35165,-12.3833 -0.28545,-16.4159 l 0.746,-2.82149 0.89905,5.12997 c 1.40648,8.02534 5.64189,18.06455 11.14843,26.42507 2.84177,4.31462 10.29548,13.13207 14.62596,17.30192 8.89,8.56027 21.77586,14.89386 33.15514,16.29625 l 2.71243,0.33427 -1.56638,2.95085 c -2.04241,3.84762 -2.46684,8.00599 -1.23671,12.11718 2.91215,9.73281 12.48063,21.08821 21.21681,25.17904 3.57303,1.67313 4.76522,1.96941 8.63348,2.14548 5.57961,0.25396 9.39868,-0.97117 12.68413,-4.06897 4.78679,-4.51343 6.49394,-12.25942 3.79699,-17.22854 -2.78784,-5.13661 -7.43838,-8.2093 -13.19204,-8.71618 -3.4986,-0.30823 -6.61152,0.73074 -10.06307,3.35867 -2.9235,2.2259 -4.18326,2.73552 -6.76201,2.73552 -2.81898,0 -5.40665,-1.68189 -6.71773,-4.3663 -3.1814,-6.5138 3.33969,-14.04062 14.74826,-17.02288 4.13953,-1.08209 11.73135,-1.08128 16.02328,0.002 14.36599,3.62502 24.29272,15.81226 24.32247,29.8611 0.008,4.21611 -1.04701,9.6512 -2.52546,12.99913 -1.40345,3.17801 -6.34262,9.42359 -9.42241,11.91457 -3.34431,2.70495 -9.05874,5.33002 -13.66753,6.27855 -4.54211,0.93479 -11.53378,0.91077 -16.08448,-0.0553 z M 8.8046753,209.65 C -9.601907,204.35878 -22.618271,193.93332 -30.274013,178.34993 c -3.626541,-7.38188 -4.177581,-9.98907 -4.174328,-19.7504 0.0028,-8.165 0.06266,-8.63684 1.694478,-13.33791 3.704014,-10.67085 10.314128,-18.52014 19.176369,-22.77135 6.3347957,-3.0388 11.3099942,-4.09308 17.6784136,-3.74626 14.8399464,0.80825 27.4696194,10.90975 31.1916964,24.94787 0.692334,2.6112 1.198746,3.62172 1.814986,3.62172 1.975469,0 7.353564,-3.25325 10.744067,-6.49916 4.950379,-4.73926 7.458515,-8.10695 10.984772,-14.74933 1.659577,-3.12612 3.02578,-5.53622 3.036007,-5.35578 0.06272,1.10658 -1.867013,9.77076 -3.240408,14.54884 -2.015703,7.01268 -4.738469,12.35226 -8.796899,17.25148 -3.497915,4.22258 -6.370886,6.42539 -11.307422,8.66982 -10.261921,4.66568 -21.204377,2.39015 -25.259053,-5.25273 -1.928707,-3.63553 -0.839868,-8.55892 2.262019,-10.22817 0.668941,-0.35997 2.357009,-0.7787 3.751264,-0.93047 l 2.535005,-0.27598 -1.595363,-3.09571 c -0.877449,-1.70261 -2.289205,-3.74154 -3.137235,-4.5309 -1.478936,-1.37665 -1.605564,-1.40323 -3.102288,-0.65126 -1.458322,0.73271 -1.780303,0.69771 -4.9211124,-0.53486 -2.8489137,-1.11804 -3.8742566,-1.27227 -6.7330705,-1.01291 -7.841434,0.71144 -15.2439251,6.23976 -18.0248831,13.46132 -4.476275,11.62394 -1.085542,24.09794 9.351653,34.40336 7.6962086,7.59902 19.712346,13.02759 30.853135,13.93862 l 4.256264,0.34805 -2.886657,1.92872 c -3.266282,2.18239 -10.102808,8.639 -11.401542,10.76796 -0.473331,0.7759 -0.987574,1.39844 -1.142761,1.38343 -0.155178,-0.0155 -2.192976,-0.5766 -4.5284187,-1.24794 z M 22.026954,186.60809 C 17.291041,185.55363 10.65182,182.92588 7.1666568,180.72648 5.4661981,179.65337 2.5305099,177.17541 0.64290628,175.21993 -9.5752398,164.63424 -10.574007,151.55957 -1.6431698,145.2933 c 1.91450422,-1.3433 5.4148761,-2.80576 5.8059928,-2.42576 0.099361,0.0966 -0.2361608,0.96326 -0.7456223,1.92606 -0.7106813,1.34304 -0.9255071,3.0043 -0.9229248,7.13698 0.00299,4.83585 0.1521441,5.68138 1.4588719,8.27156 2.87598,5.70073 8.3065352,10.14073 14.6056312,11.94147 4.116498,1.17681 13.025659,1.0926 18.11153,-0.1712 11.73742,-2.91663 22.323603,-12.09744 28.201301,-24.45745 0.986341,-2.07415 3.005392,-7.06552 4.486783,-11.09196 2.719046,-7.39042 4.917701,-12.10719 6.521138,-13.98977 0.480623,-0.56429 0.688147,-0.68198 0.461166,-0.26154 -0.226981,0.42045 -0.57879,6.88421 -0.781798,14.36392 -0.45401,16.72778 -0.990662,19.73976 -4.890895,27.45038 -3.223635,6.37299 -6.552695,10.62495 -11.165754,14.26114 -3.81405,3.00638 -11.404913,6.69184 -16.091248,7.81247 -4.768911,1.14038 -17.283902,1.46138 -21.384048,0.54848 z M 163.0115,171.59915 c -15.41667,-3.20923 -30.24217,-15.22658 -40.72128,-33.00819 -9.04838,-15.35389 -9.24453,-27.52085 -0.53535,-33.21008 3.98133,-2.60079 6.90328,-3.21101 15.37522,-3.21101 8.86733,0 12.57079,-0.5776 17.09948,-2.666785 3.99009,-1.840721 9.14902,-6.631206 11.26433,-10.459828 2.84301,-5.145689 3.76068,-11.743255 2.46977,-17.756227 -0.64316,-2.995715 -3.94818,-10.260161 -5.84629,-12.850029 l -1.21183,-1.653521 1.61735,1.11895 c 0.88956,0.615403 3.19648,2.745309 5.12652,4.733114 3.85065,3.965895 7.59295,10.644914 9.06154,16.172485 1.8936,7.127192 0.4452,16.826899 -3.4509,23.110021 -3.716,5.99267 -11.32602,11.49187 -18.1771,13.13523 -1.71399,0.41113 -6.12103,0.59724 -12.5668,0.53068 l -9.92709,-0.10257 -1.55692,1.5127 c -2.11457,2.05448 -2.08261,3.92642 0.0952,5.57872 1.58372,1.20155 13.06686,3.18646 18.45937,3.19079 14.52684,0.0116 26.12324,-7.16964 32.71485,-20.25931 3.40553,-6.762742 4.37513,-10.813483 4.3591,-18.211402 -0.016,-7.432799 -0.99734,-11.527495 -4.38109,-18.282169 -7.03096,-14.035329 -20.67901,-24.22856 -37.05048,-27.671633 -6.15685,-1.294844 -16.19675,-1.525349 -21.82598,-0.501101 -6.00772,1.093113 -13.18195,3.406614 -17.67056,5.698285 -5.06334,2.585098 -14.036759,9.367168 -17.787016,13.443348 -3.480677,3.783155 -7.975691,10.932916 -9.718082,15.457521 -2.579093,6.697361 -5.093756,19.41351 -4.465693,22.582096 0.109718,0.553533 -0.375423,1.484606 -1.133079,2.174535 -2.40659,2.19151 -6.500236,7.96177 -8.185351,11.53781 l -1.658543,3.51965 -1.286967,-2.72135 c -0.707834,-1.49676 -1.763791,-4.95948 -2.346573,-7.69495 -1.391297,-6.530523 -1.11453,-19.096913 0.563427,-25.581984 2.232324,-8.627619 5.786837,-16.464269 10.916462,-24.067536 2.932959,-4.347332 14.003148,-14.969274 18.93073,-18.164216 8.08337,-5.241092 19.300555,-9.710629 29.210725,-11.639144 7.06694,-1.375224 21.33074,-1.229858 28.63986,0.291876 7.43084,1.547078 10.82862,2.685804 17.70275,5.932892 31.90697,15.071669 46.80034,51.588059 32.93728,80.757422 -2.78905,5.86843 -8.14496,13.50602 -12.22975,17.43965 -6.10598,5.88006 -13.95595,9.87812 -22.93901,11.68307 -4.8716,0.97885 -16.85102,0.7259 -21.13257,-0.44622 -1.5246,-0.41738 -2.772,-0.58829 -2.772,-0.37982 0,0.58486 6.69869,6.53651 10.07474,8.95118 4.14072,2.96161 10.99731,6.17632 16.06131,7.53034 6.15188,1.64489 17.76539,1.64394 23.73018,-0.002 13.97142,-3.85518 23.76405,-13.73532 26.16255,-26.39633 0.95629,-5.04801 0.51656,-7.74407 -2.09441,-12.84086 -1.88183,-3.67345 -2.22012,-4.77443 -1.98668,-6.46545 0.39299,-2.84675 2.09745,-4.92967 4.87829,-5.96151 4.66235,-1.72997 8.78264,0.14406 12.02716,5.47057 3.36467,5.52367 4.35085,9.42405 4.26614,16.87273 -0.0918,8.06614 -1.26768,12.69473 -5.06263,19.92679 -4.73704,9.02742 -10.91548,15.54534 -19.21329,20.26899 -2.74755,1.56408 -3.47124,1.77049 -4.85526,1.38485 -5.67645,-1.58173 -14.07942,-0.98913 -21.91006,1.54517 -3.86533,1.25098 -5.46919,1.4979 -9.50402,1.46313 -2.66967,-0.0231 -6.51347,-0.38727 -8.54175,-0.80948 z M 30.471287,119.09297 c -1.114769,-1.75248 -10.605742,-6.82183 -15.783442,-8.43031 -0.973481,-0.30243 -0.971238,-0.3453 0.07599,-1.45248 C 18.430439,105.3337 25.474343,92.862456 27.867311,86.01045 29.607019,81.028985 30.18755,73.373039 29.164346,68.905321 27.261367,60.596126 21.119535,54.233068 13.719274,52.903942 9.9150145,52.220659 6.4914471,52.947761 3.0129949,55.177694 c -5.4905171,3.519835 -7.3021923,8.550839 -5.0598257,14.051092 1.37843943,3.381146 1.39057464,5.03554 0.052584,7.167656 -3.3936693,5.407904 -10.9328132,4.742245 -15.0484602,-1.32868 -1.555152,-2.293974 -2.906433,-7.1428 -2.906433,-10.429213 0,-9.798784 6.730414,-20.100554 16.0468268,-24.561728 19.4312162,-9.304674 41.0841272,0.311875 48.3716972,21.48297 2.319036,6.737011 2.998755,12.74531 2.170954,19.189839 -0.904345,7.040447 -2.134837,10.618468 -6.953747,20.2202 -2.288435,4.55972 -5.035416,10.44636 -6.1044,13.08142 -2.147937,5.29469 -2.542855,5.93472 -3.110904,5.04172 z m 69.065479,-13.28088 c -3.897919,-2.37944 -4.364445,-7.178034 -0.989969,-10.182629 1.546683,-1.377153 2.296743,-1.667559 4.307123,-1.667559 4.31668,0 7.08525,2.589654 7.08525,6.627408 0,1.67186 -0.36223,2.49263 -1.74876,3.96262 -1.45964,1.54748 -2.17981,1.8902 -4.35601,2.073 -1.98051,0.16635 -3.01361,-0.0291 -4.297634,-0.81284 z"
       id="path1" /></g></svg>
